<svg width="74" height="33" viewBox="0 0 74 33" fill="none" xmlns="http://www.w3.org/2000/svg">
<path d="M0 1.51445V0.341284H8.19082V1.51445H4.75665V11.2624H3.43417V1.51445H0Z" fill="#666666"/>
<path d="M12.2009 11.433C11.4615 11.433 10.8127 11.257 10.2545 10.9051C9.69993 10.5531 9.26622 10.0608 8.95337 9.42797C8.64408 8.79517 8.48944 8.05573 8.48944 7.20963C8.48944 6.35641 8.64408 5.61163 8.95337 4.97528C9.26622 4.33893 9.69993 3.84478 10.2545 3.49283C10.8127 3.14088 11.4615 2.96491 12.2009 2.96491C12.9404 2.96491 13.5874 3.14088 14.142 3.49283C14.7001 3.84478 15.1338 4.33893 15.4431 4.97528C15.7559 5.61163 15.9124 6.35641 15.9124 7.20963C15.9124 8.05573 15.7559 8.79517 15.4431 9.42797C15.1338 10.0608 14.7001 10.5531 14.142 10.9051C13.5874 11.257 12.9404 11.433 12.2009 11.433ZM12.2009 10.3025C12.7626 10.3025 13.2248 10.1585 13.5874 9.87057C13.95 9.58262 14.2184 9.204 14.3926 8.73474C14.5668 8.26547 14.6539 7.7571 14.6539 7.20963C14.6539 6.66215 14.5668 6.152 14.3926 5.67918C14.2184 5.20636 13.95 4.82419 13.5874 4.53268C13.2248 4.24116 12.7626 4.09541 12.2009 4.09541C11.6392 4.09541 11.1771 4.24116 10.8144 4.53268C10.4518 4.82419 10.1834 5.20636 10.0092 5.67918C9.83502 6.152 9.74793 6.66215 9.74793 7.20963C9.74793 7.7571 9.83502 8.26547 10.0092 8.73474C10.1834 9.204 10.4518 9.58262 10.8144 9.87057C11.1771 10.1585 11.6392 10.3025 12.2009 10.3025Z" fill="#666666"/>
<path d="M21.3956 3.07156V4.13807H17.1509V3.07156H21.3956ZM18.388 1.10917H19.6465V8.91605C19.6465 9.27155 19.698 9.53818 19.8011 9.71593C19.9078 9.89013 20.0429 10.0074 20.2064 10.0679C20.3735 10.1248 20.5495 10.1532 20.7343 10.1532C20.873 10.1532 20.9867 10.1461 21.0756 10.1319C21.1645 10.1141 21.2356 10.0999 21.2889 10.0892L21.5449 11.2197C21.4596 11.2517 21.3405 11.2837 21.1876 11.3157C21.0347 11.3512 20.841 11.369 20.6064 11.369C20.2509 11.369 19.9025 11.2926 19.5612 11.1397C19.2234 10.9869 18.9426 10.754 18.7186 10.4412C18.4982 10.1283 18.388 9.7337 18.388 9.25733V1.10917Z" fill="#666666"/>
<path d="M25.699 11.4543C25.1799 11.4543 24.7089 11.3566 24.2858 11.1611C23.8628 10.962 23.5268 10.6758 23.278 10.3025C23.0291 9.92568 22.9047 9.47063 22.9047 8.93738C22.9047 8.46811 22.9971 8.08772 23.182 7.79621C23.3668 7.50114 23.6139 7.27006 23.9232 7.10297C24.2325 6.93589 24.5738 6.81146 24.9471 6.72969C25.3239 6.64437 25.7025 6.57683 26.0829 6.52706C26.5806 6.46307 26.9841 6.41507 27.2934 6.38308C27.6062 6.34753 27.8338 6.28887 27.976 6.2071C28.1217 6.12534 28.1946 5.98314 28.1946 5.7805V5.73784C28.1946 5.21169 28.0506 4.80286 27.7627 4.51135C27.4783 4.21984 27.0463 4.07408 26.4668 4.07408C25.866 4.07408 25.395 4.20561 25.0537 4.46869C24.7124 4.73176 24.4725 5.01261 24.3338 5.31123L23.1393 4.88463C23.3526 4.38692 23.637 3.99942 23.9925 3.72213C24.3516 3.44128 24.7426 3.24575 25.1657 3.13555C25.5923 3.02179 26.0118 2.96491 26.4242 2.96491C26.6873 2.96491 26.9894 2.9969 27.3307 3.06089C27.6756 3.12133 28.008 3.24753 28.3279 3.4395C28.6514 3.63148 28.9198 3.92121 29.1331 4.30871C29.3464 4.69621 29.4531 5.21525 29.4531 5.86582V11.2624H28.1946V10.1532H28.1306C28.0453 10.331 27.9031 10.5211 27.704 10.7238C27.5049 10.9264 27.2401 11.0988 26.9094 11.241C26.5788 11.3832 26.1753 11.4543 25.699 11.4543ZM25.8909 10.3238C26.3886 10.3238 26.8081 10.2261 27.1494 10.0306C27.4943 9.83502 27.7538 9.58262 27.928 9.27333C28.1057 8.96404 28.1946 8.63875 28.1946 8.29747V7.14563C28.1413 7.20963 28.024 7.26828 27.8426 7.32161C27.6649 7.37138 27.4587 7.41582 27.2241 7.45492C26.993 7.49047 26.7672 7.52247 26.5468 7.55091C26.33 7.57579 26.154 7.59712 26.0189 7.6149C25.6918 7.65756 25.3861 7.72688 25.1017 7.82287C24.8209 7.9153 24.5933 8.05573 24.4191 8.24414C24.2485 8.429 24.1632 8.68141 24.1632 9.00137C24.1632 9.43864 24.3249 9.76926 24.6484 9.99322C24.9755 10.2136 25.3897 10.3238 25.8909 10.3238Z" fill="#666666"/>
<path d="M33.0086 0.341284V11.2624H31.7501V0.341284H33.0086Z" fill="#666666"/>
<path d="M39.7076 11.2624V0.341284H43.3977C44.2545 0.341284 44.9548 0.495928 45.4988 0.805217C46.0462 1.11095 46.4515 1.52511 46.7146 2.0477C46.9777 2.5703 47.1092 3.15332 47.1092 3.79678C47.1092 4.44025 46.9777 5.02505 46.7146 5.5512C46.4551 6.07734 46.0533 6.49684 45.5094 6.80968C44.9655 7.11897 44.2687 7.27362 43.4191 7.27362H40.7741V6.10045H43.3764C43.963 6.10045 44.434 5.99913 44.7895 5.7965C45.145 5.59386 45.4028 5.32012 45.5628 4.97528C45.7263 4.62689 45.8081 4.23405 45.8081 3.79678C45.8081 3.35951 45.7263 2.96846 45.5628 2.62362C45.4028 2.27878 45.1433 2.0086 44.7842 1.81307C44.4251 1.61399 43.9488 1.51445 43.3551 1.51445H41.0301V11.2624H39.7076Z" fill="#666666"/>
<path d="M52.3084 11.433C51.569 11.433 50.9202 11.257 50.3621 10.9051C49.8075 10.5531 49.3738 10.0608 49.0609 9.42797C48.7516 8.79517 48.597 8.05573 48.597 7.20963C48.597 6.35641 48.7516 5.61163 49.0609 4.97528C49.3738 4.33893 49.8075 3.84478 50.3621 3.49283C50.9202 3.14088 51.569 2.96491 52.3084 2.96491C53.0479 2.96491 53.6949 3.14088 54.2495 3.49283C54.8076 3.84478 55.2414 4.33893 55.5506 4.97528C55.8635 5.61163 56.0199 6.35641 56.0199 7.20963C56.0199 8.05573 55.8635 8.79517 55.5506 9.42797C55.2414 10.0608 54.8076 10.5531 54.2495 10.9051C53.6949 11.257 53.0479 11.433 52.3084 11.433ZM52.3084 10.3025C52.8701 10.3025 53.3323 10.1585 53.6949 9.87057C54.0575 9.58262 54.3259 9.204 54.5001 8.73474C54.6743 8.26547 54.7614 7.7571 54.7614 7.20963C54.7614 6.66215 54.6743 6.152 54.5001 5.67918C54.3259 5.20636 54.0575 4.82419 53.6949 4.53268C53.3323 4.24116 52.8701 4.09541 52.3084 4.09541C51.7467 4.09541 51.2846 4.24116 50.922 4.53268C50.5594 4.82419 50.291 5.20636 50.1168 5.67918C49.9426 6.152 49.8555 6.66215 49.8555 7.20963C49.8555 7.7571 49.9426 8.26547 50.1168 8.73474C50.291 9.204 50.5594 9.58262 50.922 9.87057C51.2846 10.1585 51.7467 10.3025 52.3084 10.3025Z" fill="#666666"/>
<path d="M57.941 11.2624V3.07156H59.1994V11.2624H57.941ZM58.5809 1.70642C58.3356 1.70642 58.124 1.62288 57.9463 1.45579C57.7721 1.2887 57.685 1.08784 57.685 0.85321C57.685 0.618577 57.7721 0.417717 57.9463 0.25063C58.124 0.0835434 58.3356 0 58.5809 0C58.8262 0 59.0359 0.0835434 59.2101 0.25063C59.3879 0.417717 59.4767 0.618577 59.4767 0.85321C59.4767 1.08784 59.3879 1.2887 59.2101 1.45579C59.0359 1.62288 58.8262 1.70642 58.5809 1.70642Z" fill="#666666"/>
<path d="M62.7629 6.33508V11.2624H61.5044V3.07156H62.7203V4.35137H62.8269C63.0189 3.93543 63.3104 3.60126 63.7015 3.34885C64.0925 3.09289 64.5973 2.96491 65.2159 2.96491C65.7705 2.96491 66.2558 3.07867 66.6717 3.30619C67.0876 3.53016 67.4111 3.87144 67.6422 4.33004C67.8733 4.78509 67.9888 5.361 67.9888 6.05779V11.2624H66.7304V6.14311C66.7304 5.49965 66.5633 4.99839 66.2291 4.63933C65.8949 4.27672 65.4363 4.09541 64.8533 4.09541C64.4516 4.09541 64.0925 4.18251 63.7761 4.3567C63.4633 4.5309 63.2162 4.78509 63.0349 5.11926C62.8536 5.45343 62.7629 5.85871 62.7629 6.33508Z" fill="#666666"/>
<path d="M73.8507 3.07156V4.13807H69.6059V3.07156H73.8507ZM70.8431 1.10917H72.1016V8.91605C72.1016 9.27155 72.1531 9.53818 72.2562 9.71593C72.3629 9.89013 72.498 10.0074 72.6615 10.0679C72.8286 10.1248 73.0046 10.1532 73.1894 10.1532C73.3281 10.1532 73.4418 10.1461 73.5307 10.1319C73.6196 10.1141 73.6907 10.0999 73.744 10.0892L74 11.2197C73.9147 11.2517 73.7956 11.2837 73.6427 11.3157C73.4898 11.3512 73.2961 11.369 73.0614 11.369C72.7059 11.369 72.3575 11.2926 72.0163 11.1397C71.6785 10.9869 71.3977 10.754 71.1737 10.4412C70.9533 10.1283 70.8431 9.7337 70.8431 9.25733V1.10917Z" fill="#666666"/>
<path d="M15.2445 19.4481V32.2855H12.7104V22.3693L9.66607 23.3372V21.3399L14.9717 19.4481H15.2445Z" fill="#6690FB"/>
<path d="M28.0378 24.7538V26.971C28.0378 27.933 27.9352 28.763 27.7299 29.4611C27.5246 30.1532 27.2283 30.7222 26.8412 31.168C26.4599 31.608 26.0053 31.9335 25.4774 32.1447C24.9495 32.3559 24.3629 32.4614 23.7176 32.4614C23.2014 32.4614 22.7205 32.3969 22.2746 32.2679C21.8288 32.133 21.427 31.9247 21.0692 31.6432C20.7173 31.3616 20.4123 31.0067 20.1542 30.5785C19.9019 30.1444 19.7084 29.6283 19.5734 29.0299C19.4385 28.4316 19.3711 27.7453 19.3711 26.971V24.7538C19.3711 23.7918 19.4737 22.9676 19.679 22.2813C19.8902 21.5891 20.1864 21.0231 20.5677 20.5832C20.9548 20.1432 21.4124 19.8206 21.9403 19.6153C22.4682 19.4041 23.0548 19.2985 23.7 19.2985C24.2162 19.2985 24.6943 19.366 25.1342 19.5009C25.58 19.63 25.9818 19.8323 26.3397 20.108C26.6975 20.3837 27.0025 20.7386 27.2547 21.1727C27.507 21.6009 27.7005 22.1141 27.8354 22.7125C27.9704 23.3049 28.0378 23.9853 28.0378 24.7538ZM25.495 27.3054V24.4106C25.495 23.9472 25.4686 23.5425 25.4158 23.1964C25.3689 22.8503 25.2955 22.557 25.1958 22.3165C25.0961 22.0701 24.9729 21.8707 24.8263 21.7182C24.6796 21.5657 24.5125 21.4542 24.3248 21.3838C24.137 21.3135 23.9288 21.2783 23.7 21.2783C23.4126 21.2783 23.1575 21.334 22.9346 21.4454C22.7175 21.5569 22.5327 21.7358 22.3802 21.9822C22.2277 22.2227 22.1104 22.5453 22.0283 22.95C21.952 23.3489 21.9139 23.8358 21.9139 24.4106V27.3054C21.9139 27.7688 21.9374 28.1765 21.9843 28.5284C22.0371 28.8804 22.1133 29.1825 22.2131 29.4347C22.3186 29.681 22.4418 29.8834 22.5826 30.0418C22.7293 30.1943 22.8964 30.3058 23.0841 30.3761C23.2777 30.4465 23.4889 30.4817 23.7176 30.4817C23.9992 30.4817 24.2485 30.426 24.4655 30.3146C24.6884 30.1972 24.8761 30.0154 25.0287 29.769C25.187 29.5168 25.3043 29.1883 25.3806 28.7836C25.4569 28.3788 25.495 27.8861 25.495 27.3054Z" fill="#6690FB"/>
<path d="M38.3851 24.7538V26.971C38.3851 27.933 38.2825 28.763 38.0772 29.4611C37.8719 30.1532 37.5756 30.7222 37.1885 31.168C36.8072 31.608 36.3526 31.9335 35.8247 32.1447C35.2968 32.3559 34.7102 32.4614 34.0649 32.4614C33.5488 32.4614 33.0678 32.3969 32.622 32.2679C32.1762 32.133 31.7743 31.9247 31.4165 31.6432C31.0646 31.3616 30.7596 31.0067 30.5015 30.5785C30.2492 30.1444 30.0557 29.6283 29.9207 29.0299C29.7858 28.4316 29.7184 27.7453 29.7184 26.971V24.7538C29.7184 23.7918 29.821 22.9676 30.0263 22.2813C30.2375 21.5891 30.5337 21.0231 30.915 20.5832C31.3021 20.1432 31.7597 19.8206 32.2876 19.6153C32.8155 19.4041 33.4021 19.2985 34.0474 19.2985C34.5635 19.2985 35.0416 19.366 35.4815 19.5009C35.9273 19.63 36.3292 19.8323 36.687 20.108C37.0448 20.3837 37.3498 20.7386 37.602 21.1727C37.8543 21.6009 38.0478 22.1141 38.1828 22.7125C38.3177 23.3049 38.3851 23.9853 38.3851 24.7538ZM35.8423 27.3054V24.4106C35.8423 23.9472 35.8159 23.5425 35.7631 23.1964C35.7162 22.8503 35.6429 22.557 35.5431 22.3165C35.4434 22.0701 35.3202 21.8707 35.1736 21.7182C35.0269 21.5657 34.8598 21.4542 34.6721 21.3838C34.4844 21.3135 34.2761 21.2783 34.0474 21.2783C33.7599 21.2783 33.5048 21.334 33.2819 21.4454C33.0648 21.5569 32.8801 21.7358 32.7275 21.9822C32.575 22.2227 32.4577 22.5453 32.3756 22.95C32.2993 23.3489 32.2612 23.8358 32.2612 24.4106V27.3054C32.2612 27.7688 32.2847 28.1765 32.3316 28.5284C32.3844 28.8804 32.4606 29.1825 32.5604 29.4347C32.6659 29.681 32.7891 29.8834 32.9299 30.0418C33.0766 30.1943 33.2437 30.3058 33.4314 30.3761C33.625 30.4465 33.8362 30.4817 34.0649 30.4817C34.3465 30.4817 34.5958 30.426 34.8128 30.3146C35.0357 30.1972 35.2234 30.0154 35.376 29.769C35.5343 29.5168 35.6517 29.1883 35.7279 28.7836C35.8042 28.3788 35.8423 27.8861 35.8423 27.3054Z" fill="#6690FB"/>
<path d="M48.7324 24.7538V26.971C48.7324 27.933 48.6298 28.763 48.4245 29.4611C48.2192 30.1532 47.9229 30.7222 47.5358 31.168C47.1545 31.608 46.6999 31.9335 46.172 32.1447C45.6441 32.3559 45.0575 32.4614 44.4123 32.4614C43.8961 32.4614 43.4151 32.3969 42.9693 32.2679C42.5235 32.133 42.1217 31.9247 41.7638 31.6432C41.4119 31.3616 41.1069 31.0067 40.8488 30.5785C40.5965 30.1444 40.403 29.6283 40.2681 29.0299C40.1331 28.4316 40.0657 27.7453 40.0657 26.971V24.7538C40.0657 23.7918 40.1683 22.9676 40.3736 22.2813C40.5848 21.5891 40.881 21.0231 41.2623 20.5832C41.6495 20.1432 42.107 19.8206 42.6349 19.6153C43.1628 19.4041 43.7494 19.2985 44.3947 19.2985C44.9108 19.2985 45.3889 19.366 45.8288 19.5009C46.2747 19.63 46.6765 19.8323 47.0343 20.108C47.3921 20.3837 47.6971 20.7386 47.9493 21.1727C48.2016 21.6009 48.3951 22.1141 48.5301 22.7125C48.665 23.3049 48.7324 23.9853 48.7324 24.7538ZM46.1896 27.3054V24.4106C46.1896 23.9472 46.1632 23.5425 46.1104 23.1964C46.0635 22.8503 45.9902 22.557 45.8904 22.3165C45.7907 22.0701 45.6675 21.8707 45.5209 21.7182C45.3742 21.5657 45.2071 21.4542 45.0194 21.3838C44.8317 21.3135 44.6234 21.2783 44.3947 21.2783C44.1072 21.2783 43.8521 21.334 43.6292 21.4454C43.4121 21.5569 43.2274 21.7358 43.0748 21.9822C42.9223 22.2227 42.805 22.5453 42.7229 22.95C42.6466 23.3489 42.6085 23.8358 42.6085 24.4106V27.3054C42.6085 27.7688 42.632 28.1765 42.6789 28.5284C42.7317 28.8804 42.808 29.1825 42.9077 29.4347C43.0133 29.681 43.1364 29.8834 43.2772 30.0418C43.4239 30.1943 43.591 30.3058 43.7787 30.3761C43.9723 30.4465 44.1835 30.4817 44.4123 30.4817C44.6938 30.4817 44.9431 30.426 45.1601 30.3146C45.383 30.1972 45.5708 30.0154 45.7233 29.769C45.8816 29.5168 45.999 29.1883 46.0752 28.7836C46.1515 28.3788 46.1896 27.8861 46.1896 27.3054Z" fill="#6690FB"/>
<path d="M60.1972 27.7189H56.9328V25.66H60.1972C60.7016 25.66 61.1122 25.5779 61.429 25.4137C61.7457 25.2436 61.9774 25.0089 62.1241 24.7098C62.2707 24.4106 62.3441 24.0733 62.3441 23.6979C62.3441 23.3166 62.2707 22.9617 62.1241 22.6333C61.9774 22.3048 61.7457 22.0408 61.429 21.8414C61.1122 21.6419 60.7016 21.5422 60.1972 21.5422H57.8479V32.2855H55.2083V19.4745H60.1972C61.2002 19.4745 62.0596 19.6564 62.7752 20.02C63.4967 20.3779 64.0481 20.8735 64.4294 21.507C64.8106 22.1405 65.0013 22.865 65.0013 23.6803C65.0013 24.5074 64.8106 25.223 64.4294 25.8272C64.0481 26.4314 63.4967 26.8977 62.7752 27.2262C62.0596 27.5547 61.2002 27.7189 60.1972 27.7189Z" fill="#6690FB"/>
</svg>
